<svg xmlns="http://www.w3.org/2000/svg" viewBox="0 0 948.27 448.94"><defs><style>.cls-1{isolation:isolate;}.cls-2{fill:#700024;}.cls-3{fill:#d21b47;}.cls-4{fill:#9b9b99;}.cls-5{fill:#fff;}</style></defs><g id="Rectangle_1_copy_12" data-name="Rectangle 1 copy 12" class="cls-1"><g id="Rectangle_1_copy_12-2" data-name="Rectangle 1 copy 12"><polygon class="cls-2" points="947.21 1.06 76.76 1.06 76.53 2.66 75.15 2.66 74.93 4.27 73.55 4.27 73.32 5.88 71.94 5.88 71.71 7.48 70.33 7.48 70.11 9.09 68.72 9.09 68.5 10.7 67.12 10.7 66.89 12.3 65.51 12.3 65.28 13.91 63.9 13.91 63.68 15.52 62.3 15.52 62.07 17.13 60.69 17.13 0 448.94 870.46 448.94 870.68 447.34 872.06 447.34 872.29 445.73 873.67 445.73 873.89 444.12 875.28 444.12 875.5 442.52 876.88 442.52 877.11 440.91 878.49 440.91 878.72 439.3 880.1 439.3 880.32 437.69 881.7 437.69 881.93 436.09 883.31 436.09 883.54 434.48 884.92 434.48 885.14 432.87 886.52 432.87 947.21 1.06"/></g></g><g id="Rectangle_1" data-name="Rectangle 1" class="cls-1"><g id="Rectangle_1-2" data-name="Rectangle 1"><polygon class="cls-3" points="77.81 0 17.13 431.82 887.58 431.82 948.27 0 77.81 0"/></g></g><g id="TLP_copy_8" data-name="TLP copy 8" class="cls-1"><g id="TLP_copy_8-2" data-name="TLP copy 8"><path class="cls-4" d="M365.37,169.88h1.37l.24-1.61h1.36l.25-1.61H370l.25-1.61h1.36l.24-1.6h1.36l.25-1.61h1.36l.25-1.61h1.36l12.39-81H198.15l-.25,1.61h-1.36l-.24,1.61h-1.36l-.25,1.6h-1.36l-.25,1.61h-1.36l-.24,1.61h-1.37l-.24,1.6h-1.36l-.25,1.61H186.9l-12.39,81h49.31L185.44,422.41h89.8l.25-1.61h1.36l.24-1.6h1.37l.24-1.61h1.36l.25-1.61h1.36l.25-1.6h1.36l.24-1.61h1.36l.25-1.61h1.36l36.66-239.68h42ZM514.79,79.23H425l-.24,1.61h-1.37l-.24,1.61h-1.36l-.25,1.6h-1.36l-.25,1.61h-1.36l-.24,1.61H417l-.25,1.6h-1.36l-.25,1.61h-1.36L363,422.41H520.12l.25-1.61h1.36l.25-1.6h1.36l.24-1.61h1.36l.25-1.61h1.36l.25-1.6h1.36l.24-1.61h1.37l.24-1.61h1.36l12-78.36H476Zm304,56.35q-8-25.1-36-40.72T702.43,79.23H618.79l-.25,1.61h-1.36l-.25,1.61h-1.36l-.24,1.6H614l-.25,1.61h-1.36l-.25,1.61h-1.36l-.24,1.6h-1.37l-.24,1.61h-1.36L556.77,422.41h89.8l.25-1.61h1.36l.25-1.6h1.36l.24-1.61h1.37l.24-1.61H653l.25-1.6h1.36l.25-1.61h1.36l.24-1.61h1.36l14.92-97.49q62.52-.26,95.86-27.07a96.4,96.4,0,0,0,8.6-7.83c.54-.53,1.08-1.06,1.61-1.6s1.07-1.07,1.6-1.61,1.08-1.06,1.61-1.61,1.08-1.06,1.61-1.6,1.07-1.07,1.6-1.61l1.61-1.61q27.57-27,35.26-77.2Q826.89,160.67,818.83,135.58Zm-98.46,66.28a48.61,48.61,0,0,1-6.9,19.25q-10.1,6.48-24.49,6.48H685.9l10-65.63q14.16,1.2,20.15,11.72Q722.86,185.58,720.37,201.86Z" transform="translate(-25.84 -25.5)"/></g></g><g id="TLP" class="cls-1"><g id="TLP-2" data-name="TLP"><path class="cls-5" d="M390.37,77.63H199.76l-12.39,81h49.3L198.29,409.55H288.1l38.38-250.92H378Zm126,0h-89.8L375.82,409.55H533l12-78.36H477.61ZM820.44,134q-8-25.08-36-40.72T704,77.63H620.39L569.62,409.55h89.81l16.63-108.73h8.37q63.39,0,97-27.07t42.26-83.43Q828.49,159.08,820.44,134Zm-87.22,55q-2.69,17.61-13.85,27.3T690.59,226h-3.08l11.71-76.6a42.63,42.63,0,0,1,5.79-.44q17.18,0,23.94,11.89T733.22,189Z" transform="translate(-25.84 -25.5)"/></g></g></svg>